<svg width="12" height="4" viewBox="0 0 12 4" fill="none" xmlns="http://www.w3.org/2000/svg">
<rect y="0.0480957" width="11.5" height="3.17573" rx="1.58787" fill="white"/>
<path d="M1.45179 0.95H1.64679V1.835H2.19579V2H1.45179V0.95ZM3.07742 1.604C3.07742 1.617 3.07642 1.6355 3.07442 1.6595H2.44592C2.45692 1.7185 2.48542 1.7655 2.53142 1.8005C2.57842 1.8345 2.63642 1.8515 2.70542 1.8515C2.79342 1.8515 2.86592 1.8225 2.92292 1.7645L3.02342 1.88C2.98742 1.923 2.94192 1.9555 2.88692 1.9775C2.83192 1.9995 2.76992 2.0105 2.70092 2.0105C2.61292 2.0105 2.53542 1.993 2.46842 1.958C2.40142 1.923 2.34942 1.8745 2.31242 1.8125C2.27642 1.7495 2.25842 1.6785 2.25842 1.5995C2.25842 1.5215 2.27592 1.4515 2.31092 1.3895C2.34692 1.3265 2.39642 1.2775 2.45942 1.2425C2.52242 1.2075 2.59342 1.19 2.67242 1.19C2.75042 1.19 2.81992 1.2075 2.88092 1.2425C2.94292 1.2765 2.99092 1.325 3.02492 1.388C3.05992 1.45 3.07742 1.522 3.07742 1.604ZM2.67242 1.34C2.61242 1.34 2.56142 1.358 2.51942 1.394C2.47842 1.429 2.45342 1.476 2.44442 1.535H2.89892C2.89092 1.477 2.86642 1.43 2.82542 1.394C2.78442 1.358 2.73342 1.34 2.67242 1.34ZM3.54155 1.19C3.65955 1.19 3.74955 1.2185 3.81155 1.2755C3.87455 1.3315 3.90605 1.4165 3.90605 1.5305V2H3.72905V1.9025C3.70605 1.9375 3.67305 1.9645 3.63005 1.9835C3.58805 2.0015 3.53705 2.0105 3.47705 2.0105C3.41705 2.0105 3.36455 2.0005 3.31955 1.9805C3.27455 1.9595 3.23955 1.931 3.21455 1.895C3.19055 1.858 3.17855 1.8165 3.17855 1.7705C3.17855 1.6985 3.20505 1.641 3.25805 1.598C3.31205 1.554 3.39655 1.532 3.51155 1.532H3.71855V1.52C3.71855 1.464 3.70155 1.421 3.66755 1.391C3.63455 1.361 3.58505 1.346 3.51905 1.346C3.47405 1.346 3.42955 1.353 3.38555 1.367C3.34255 1.381 3.30605 1.4005 3.27605 1.4255L3.20255 1.289C3.24455 1.257 3.29505 1.2325 3.35405 1.2155C3.41305 1.1985 3.47555 1.19 3.54155 1.19ZM3.51605 1.874C3.56305 1.874 3.60455 1.8635 3.64055 1.8425C3.67755 1.8205 3.70355 1.7895 3.71855 1.7495V1.6565H3.52505C3.41705 1.6565 3.36305 1.692 3.36305 1.763C3.36305 1.797 3.37655 1.824 3.40355 1.844C3.43055 1.864 3.46805 1.874 3.51605 1.874ZM4.32518 1.316C4.37918 1.232 4.47418 1.19 4.61018 1.19V1.3685C4.59418 1.3655 4.57968 1.364 4.56668 1.364C4.49368 1.364 4.43668 1.3855 4.39568 1.4285C4.35468 1.4705 4.33418 1.5315 4.33418 1.6115V2H4.14668V1.199H4.32518V1.316ZM5.22374 1.19C5.32474 1.19 5.40574 1.2195 5.46674 1.2785C5.52774 1.3375 5.55824 1.425 5.55824 1.541V2H5.37074V1.565C5.37074 1.495 5.35424 1.4425 5.32124 1.4075C5.28824 1.3715 5.24124 1.3535 5.18024 1.3535C5.11124 1.3535 5.05674 1.3745 5.01674 1.4165C4.97674 1.4575 4.95674 1.517 4.95674 1.595V2H4.76924V1.199H4.94774V1.3025C4.97874 1.2655 5.01774 1.2375 5.06474 1.2185C5.11174 1.1995 5.16474 1.19 5.22374 1.19ZM7.22165 1.19C7.32265 1.19 7.40265 1.2195 7.46165 1.2785C7.52065 1.3365 7.55015 1.424 7.55015 1.541V2H7.36265V1.565C7.36265 1.495 7.34715 1.4425 7.31615 1.4075C7.28515 1.3715 7.24065 1.3535 7.18265 1.3535C7.11965 1.3535 7.06915 1.3745 7.03115 1.4165C6.99315 1.4575 6.97415 1.5165 6.97415 1.5935V2H6.78665V1.565C6.78665 1.495 6.77115 1.4425 6.74015 1.4075C6.70915 1.3715 6.66465 1.3535 6.60665 1.3535C6.54265 1.3535 6.49165 1.374 6.45365 1.415C6.41665 1.456 6.39815 1.5155 6.39815 1.5935V2H6.21065V1.199H6.38915V1.301C6.41915 1.265 6.45665 1.2375 6.50165 1.2185C6.54665 1.1995 6.59665 1.19 6.65165 1.19C6.71165 1.19 6.76465 1.2015 6.81065 1.2245C6.85765 1.2465 6.89465 1.2795 6.92165 1.3235C6.95465 1.2815 6.99715 1.249 7.04915 1.226C7.10115 1.202 7.15865 1.19 7.22165 1.19ZM8.15707 2.0105C8.07607 2.0105 8.00307 1.993 7.93807 1.958C7.87307 1.923 7.82207 1.8745 7.78507 1.8125C7.74907 1.7495 7.73107 1.6785 7.73107 1.5995C7.73107 1.5205 7.74907 1.45 7.78507 1.388C7.82207 1.326 7.87307 1.2775 7.93807 1.2425C8.00307 1.2075 8.07607 1.19 8.15707 1.19C8.23907 1.19 8.31257 1.2075 8.37757 1.2425C8.44257 1.2775 8.49307 1.326 8.52907 1.388C8.56607 1.45 8.58457 1.5205 8.58457 1.5995C8.58457 1.6785 8.56607 1.7495 8.52907 1.8125C8.49307 1.8745 8.44257 1.923 8.37757 1.958C8.31257 1.993 8.23907 2.0105 8.15707 2.0105ZM8.15707 1.85C8.22607 1.85 8.28307 1.827 8.32807 1.781C8.37307 1.735 8.39557 1.6745 8.39557 1.5995C8.39557 1.5245 8.37307 1.464 8.32807 1.418C8.28307 1.372 8.22607 1.349 8.15707 1.349C8.08807 1.349 8.03107 1.372 7.98607 1.418C7.94207 1.464 7.92007 1.5245 7.92007 1.5995C7.92007 1.6745 7.94207 1.735 7.98607 1.781C8.03107 1.827 8.08807 1.85 8.15707 1.85ZM8.94237 1.316C8.99637 1.232 9.09137 1.19 9.22737 1.19V1.3685C9.21137 1.3655 9.19687 1.364 9.18387 1.364C9.11087 1.364 9.05387 1.3855 9.01287 1.4285C8.97187 1.4705 8.95137 1.5315 8.95137 1.6115V2H8.76387V1.199H8.94237V1.316ZM10.1321 1.604C10.1321 1.617 10.1311 1.6355 10.1291 1.6595H9.5006C9.5116 1.7185 9.5401 1.7655 9.5861 1.8005C9.6331 1.8345 9.6911 1.8515 9.7601 1.8515C9.8481 1.8515 9.9206 1.8225 9.9776 1.7645L10.0781 1.88C10.0421 1.923 9.9966 1.9555 9.9416 1.9775C9.8866 1.9995 9.8246 2.0105 9.7556 2.0105C9.6676 2.0105 9.5901 1.993 9.5231 1.958C9.4561 1.923 9.4041 1.8745 9.3671 1.8125C9.3311 1.7495 9.3131 1.6785 9.3131 1.5995C9.3131 1.5215 9.3306 1.4515 9.3656 1.3895C9.4016 1.3265 9.4511 1.2775 9.5141 1.2425C9.5771 1.2075 9.6481 1.19 9.7271 1.19C9.8051 1.19 9.8746 1.2075 9.9356 1.2425C9.9976 1.2765 10.0456 1.325 10.0796 1.388C10.1146 1.45 10.1321 1.522 10.1321 1.604ZM9.7271 1.34C9.6671 1.34 9.6161 1.358 9.5741 1.394C9.5331 1.429 9.5081 1.476 9.4991 1.535H9.9536C9.9456 1.477 9.9211 1.43 9.8801 1.394C9.8391 1.358 9.7881 1.34 9.7271 1.34Z" fill="#232C47"/>
</svg>
